<svg width="112" height="29" viewBox="0 0 112 29" fill="none" xmlns="http://www.w3.org/2000/svg">
<path fill-rule="evenodd" clip-rule="evenodd" d="M26.7909 11.1569L25.8298 12.063C25.7057 17.5216 21.242 21.9084 15.7537 21.9084C15.6334 21.9084 15.5136 21.9063 15.3943 21.9021L14.4327 22.8088C14.8658 22.8604 15.3067 22.8869 15.7537 22.8869C21.8605 22.8869 26.811 17.9363 26.811 11.8294C26.811 11.6036 26.8042 11.3794 26.7909 11.1569ZM10.8408 21.7383C10.1883 20.8885 9.35735 19.8363 8.49807 18.8251C8.25287 18.5708 8.02091 18.3037 7.8033 18.0249C7.37086 17.5384 6.94141 17.0785 6.53377 16.6759C6.18838 16.3348 5.75975 15.9372 5.34081 15.558C6.30809 18.2591 8.29649 20.4743 10.8408 21.7383ZM4.72786 12.6698C4.70702 12.3924 4.69641 12.1122 4.69641 11.8294C4.69641 5.72257 9.64693 0.771973 15.7537 0.771973C20.4922 0.771973 24.5345 3.75258 26.1081 7.94121L25.2753 8.51626C23.9049 4.57737 20.1594 1.7505 15.7537 1.7505C10.1874 1.7505 5.67494 6.26298 5.67494 11.8294C5.67494 11.8949 5.67556 11.9601 5.6768 12.0252L5.67222 12.0266C5.27 12.1463 4.95214 12.3777 4.72786 12.6698ZM25.5635 9.50641C25.5636 9.50699 25.5637 9.50758 25.5639 9.50816L26.4229 8.91499C26.4227 8.91442 26.4226 8.91385 26.4224 8.91328L25.5635 9.50641ZM5.74844 13.0529C5.25049 13.3485 5.15431 14.0775 5.61733 14.4909C5.80032 14.6543 5.99233 14.8272 6.18457 15.0026C6.18416 15.0013 6.18374 15 6.18332 14.9988C5.99247 14.8247 5.80191 14.6531 5.62025 14.4909C5.15807 14.0783 5.25305 13.3512 5.74864 13.0545C5.74857 13.054 5.74851 13.0534 5.74844 13.0529ZM11.4748 20.9576C11.8064 21.3872 12.0968 21.7712 12.3289 22.0813C12.5045 22.3159 12.7715 22.4383 13.0405 22.4397C12.7724 22.4374 12.5068 22.3151 12.3318 22.0813C12.1001 21.7717 11.8102 21.3885 11.4794 20.9598C11.4779 20.959 11.4763 20.9583 11.4748 20.9576Z" fill="#4285F4"/>
<rect width="8.70655" height="4.50511" rx="2.05491" transform="matrix(0.707101 -0.707112 0.707101 0.707112 0 25.8143)" fill="#4285F4"/>
<path fill-rule="evenodd" clip-rule="evenodd" d="M8.92334 12.3274C8.9828 12.0943 9.08619 11.873 9.22948 11.6758C9.42731 11.4036 9.69281 11.189 9.99838 11.0521C10.0635 11.0229 10.0694 10.9223 10.0091 10.884C9.79001 10.7449 9.61152 10.5486 9.49408 10.315C9.3465 10.0214 9.30424 9.68627 9.37434 9.3654C9.44444 9.04454 9.62268 8.75722 9.87943 8.55118C10.1362 8.34514 10.456 8.23279 10.7857 8.23279C11.1155 8.23279 11.4353 8.34514 11.6921 8.55118C11.9488 8.75722 12.1271 9.04454 12.1972 9.3654C12.2673 9.68627 12.225 10.0214 12.0774 10.315C11.9904 10.4882 11.8698 10.6408 11.724 10.7648C11.6152 10.8574 11.6293 11.0689 11.7568 11.1331C12.024 11.2678 12.2777 11.4524 12.4401 11.6757C12.6774 12.0022 12.8053 12.3949 12.8055 12.7979V15.0387C12.8055 15.2657 12.9176 15.478 13.1051 15.606C13.2028 15.6727 13.3353 15.6027 13.3353 15.4844V13.2014C13.3354 12.6658 13.5051 12.1439 13.8202 11.71C14.0616 11.3777 14.4936 11.1099 14.9121 10.9274C15.0429 10.8703 15.0563 10.6661 14.9416 10.5812C14.7008 10.4033 14.5037 10.1705 14.368 9.90005C14.1722 9.50956 14.1163 9.06412 14.2098 8.63767C14.3032 8.21122 14.5403 7.82941 14.8816 7.55563C15.223 7.28185 15.6481 7.13257 16.0864 7.13257C16.5247 7.13257 16.9499 7.28185 17.2912 7.55563C17.6326 7.82941 17.8697 8.21122 17.9631 8.63767C18.0565 9.06412 18.0007 9.50956 17.8048 9.90005C17.6692 10.1704 17.4721 10.4032 17.2314 10.5812C17.1166 10.666 17.1301 10.8703 17.2609 10.9273C17.6794 11.1098 18.1115 11.3776 18.3529 11.7099C18.6681 12.1438 18.8378 12.6658 18.8379 13.2014V14.1518L14.5844 17.0889C14.2287 17.3345 13.7473 17.2857 13.4482 16.9736L9.16723 12.5067C9.09569 12.4321 9.01296 12.3719 8.92334 12.3274ZM22.7506 11.45C22.5845 11.2833 22.3892 11.1484 22.1744 11.0521C22.1092 11.0229 22.1034 10.9223 22.1637 10.884C22.3827 10.7449 22.5612 10.5488 22.6786 10.3152C22.8262 10.0216 22.8684 9.68657 22.7984 9.36577C22.7283 9.04498 22.5501 8.75772 22.2934 8.55172C22.0367 8.34573 21.7169 8.2334 21.3873 8.2334C21.0576 8.2334 20.7378 8.34573 20.4811 8.55172C20.2244 8.75772 20.0463 9.04498 19.9762 9.36577C19.9061 9.68657 19.9483 10.0216 20.0959 10.3152C20.1829 10.4883 20.3034 10.6408 20.4492 10.7648C20.5579 10.8574 20.543 11.066 20.4127 11.1244C20.1103 11.2598 19.8012 11.4475 19.6353 11.6757C19.3979 12.0022 19.2701 12.3949 19.2698 12.7979V13.8536L22.7506 11.45Z" fill="white"/>
<path d="M5.61924 14.4909C5.09896 14.0264 5.28473 13.1634 5.95321 12.9645L8.28033 12.272C8.59662 12.1779 8.93899 12.2685 9.16733 12.5068L13.4483 16.9736C13.7474 17.2857 14.2288 17.3346 14.5846 17.0889L26.9143 8.57494C26.9829 8.52757 27.0643 8.5022 27.1477 8.5022C27.5195 8.5022 27.7 8.95671 27.4295 9.21174L13.6559 22.1981C13.2689 22.563 12.6495 22.5071 12.3308 22.0813C11.2858 20.6849 9.05708 17.7908 7.22329 15.9797C6.75539 15.5176 6.14942 14.9642 5.61924 14.4909Z" fill="#63E47F"/>
<path d="M37.3108 20.1222C36.3365 20.1222 35.4768 19.9001 34.7318 19.456C34.001 18.9975 33.4279 18.3599 33.0124 17.5432C32.6112 16.7122 32.4106 15.7593 32.4106 14.6847H35.3335C35.3335 15.5301 35.5126 16.2107 35.8708 16.7265C36.2433 17.2423 36.7233 17.5002 37.3108 17.5002H38.9656C39.5531 17.5002 40.0259 17.2351 40.3841 16.705C40.7566 16.1605 40.9429 15.4513 40.9429 14.5773V6.38877C40.9429 5.56977 41.6068 4.90584 42.4258 4.90584C43.2448 4.90584 43.9087 5.56977 43.9087 6.38877V14.7062C43.9087 15.7808 43.7081 16.7265 43.307 17.5432C42.9058 18.3599 42.3398 18.9975 41.6091 19.456C40.8784 19.9001 40.0402 20.1222 39.0946 20.1222H37.3108Z" fill="white"/>
<path d="M50.4738 20.1222C49.5711 20.1222 48.7688 19.9503 48.0667 19.6064C47.379 19.2482 46.8417 18.7467 46.4548 18.102C46.0823 17.4572 45.896 16.7122 45.896 15.8668V13.3522C45.896 12.5069 46.0895 11.7618 46.4763 11.117C46.8632 10.458 47.4005 9.94931 48.0882 9.59111C48.7903 9.23291 49.5926 9.05381 50.4953 9.05381H52.4295C53.3322 9.05381 54.1274 9.23291 54.8151 9.59111C55.5172 9.94931 56.0616 10.458 56.4485 11.117C56.8353 11.7618 57.0288 12.5069 57.0288 13.3522V15.8668C57.0288 16.7122 56.8353 17.4572 56.4485 18.102C56.0616 18.7467 55.5172 19.2482 54.8151 19.6064C54.1274 19.9503 53.325 20.1222 52.408 20.1222H50.4738ZM52.3651 17.6077C52.8952 17.6077 53.3179 17.4286 53.6331 17.0704C53.9483 16.6978 54.1059 16.2178 54.1059 15.6304V13.5457C54.1059 12.9582 53.9483 12.4854 53.6331 12.1272C53.3179 11.7546 52.9024 11.5684 52.3866 11.5684H50.5383C50.0225 11.5684 49.607 11.7546 49.2917 12.1272C48.9765 12.4854 48.8189 12.9582 48.8189 13.5457V15.6304C48.8189 16.2178 48.9765 16.6978 49.2917 17.0704C49.607 17.4286 50.0153 17.6077 50.5168 17.6077H52.3651Z" fill="white"/>
<path d="M64.2661 20.1222C63.822 20.1222 63.3706 19.9789 62.9121 19.6924C62.4536 19.4058 62.0811 19.0333 61.7946 18.5748V19.9503H59.0866V6.36728C59.0866 5.56015 59.7409 4.90584 60.548 4.90584C61.3552 4.90584 62.0095 5.56015 62.0095 6.36728V10.0639C62.296 9.76305 62.6471 9.51947 63.0626 9.33321C63.4924 9.14694 63.9008 9.05381 64.2876 9.05381H65.792C66.623 9.05381 67.3538 9.23291 67.9842 9.59111C68.6289 9.93499 69.1232 10.4293 69.4671 11.0741C69.8253 11.7188 70.0044 12.4639 70.0044 13.3092V15.7593C70.0044 16.619 69.8253 17.3784 69.4671 18.0375C69.1089 18.6966 68.6074 19.2124 67.9627 19.5849C67.3179 19.9431 66.5801 20.1222 65.749 20.1222H64.2661ZM65.4052 17.5647C65.9067 17.5647 66.3078 17.3784 66.6087 17.0059C66.9239 16.6333 67.0815 16.1462 67.0815 15.5444V13.5242C67.0815 12.951 66.9311 12.4925 66.6302 12.1487C66.3293 11.7905 65.9353 11.6114 65.4482 11.6114H64.1157C63.5426 11.6114 63.0626 11.812 62.6757 12.2131C62.2889 12.6143 62.0668 13.1445 62.0095 13.8036V15.6519C62.1098 16.225 62.339 16.6907 62.6972 17.0489C63.0697 17.3927 63.5067 17.5647 64.0082 17.5647H65.4052Z" fill="white"/>
<path d="M75.7538 19.9503C74.4786 19.9503 73.5401 19.6852 72.9384 19.1551C72.3509 18.6106 72.0572 17.7724 72.0572 16.6405V6.36728C72.0572 5.56015 72.7115 4.90584 73.5186 4.90584C74.3258 4.90584 74.9801 5.56015 74.9801 6.36728V16.4686C74.9801 16.8125 75.0589 17.0632 75.2165 17.2208C75.3741 17.3784 75.6248 17.4572 75.9687 17.4572H77.1293V19.9503H75.7538Z" fill="white"/>
<path d="M82.5645 20.1222C81.6618 20.1222 80.8595 19.9503 80.1574 19.6064C79.4697 19.2482 78.9324 18.7467 78.5455 18.102C78.173 17.4572 77.9867 16.7122 77.9867 15.8668V13.3522C77.9867 12.5069 78.1802 11.7618 78.567 11.117C78.9539 10.458 79.4912 9.94931 80.1789 9.59111C80.881 9.23291 81.6833 9.05381 82.586 9.05381H84.5202C85.4229 9.05381 86.2181 9.23291 86.9058 9.59111C87.6079 9.94931 88.1523 10.458 88.5392 11.117C88.926 11.7618 89.1195 12.5069 89.1195 13.3522V15.8668C89.1195 16.7122 88.926 17.4572 88.5392 18.102C88.1523 18.7467 87.6079 19.2482 86.9058 19.6064C86.2181 19.9503 85.4157 20.1222 84.4987 20.1222H82.5645ZM84.4558 17.6077C84.9859 17.6077 85.4086 17.4286 85.7238 17.0704C86.039 16.6978 86.1966 16.2178 86.1966 15.6304V13.5457C86.1966 12.9582 86.039 12.4854 85.7238 12.1272C85.4086 11.7546 84.9931 11.5684 84.4773 11.5684H82.629C82.1132 11.5684 81.6977 11.7546 81.3824 12.1272C81.0672 12.4854 80.9096 12.9582 80.9096 13.5457V15.6304C80.9096 16.2178 81.0672 16.6978 81.3824 17.0704C81.6977 17.4286 82.106 17.6077 82.6075 17.6077H84.4558Z" fill="white"/>
<path d="M92.174 20.1652C91.6439 20.1652 91.214 20.0076 90.8845 19.6924C90.5693 19.3628 90.4117 18.933 90.4117 18.4029C90.4117 17.8727 90.5693 17.45 90.8845 17.1348C91.214 16.8053 91.6439 16.6405 92.174 16.6405C92.7041 16.6405 93.1268 16.8053 93.442 17.1348C93.7715 17.45 93.9363 17.8727 93.9363 18.4029C93.9363 18.933 93.7715 19.3628 93.442 19.6924C93.1268 20.0076 92.7041 20.1652 92.174 20.1652Z" fill="white"/>
<path d="M99.1484 20.1222C98.0308 20.1222 97.1282 19.8428 96.4404 19.284C95.7527 18.7252 95.4088 17.9874 95.4088 17.0704V16.2751C95.4088 15.3725 95.767 14.6489 96.4834 14.1044C97.1998 13.5457 98.1454 13.2663 99.3203 13.2663H100.631C101.004 13.2663 101.405 13.3164 101.835 13.4167C102.265 13.517 102.659 13.6531 103.017 13.8251V12.7075C103.017 12.3493 102.895 12.0627 102.652 11.8478C102.422 11.6185 102.114 11.5039 101.727 11.5039H99.8791C99.4779 11.5039 99.1556 11.597 98.912 11.7833C98.5307 12.0749 98.1575 12.5355 97.6775 12.5355H97.1282C96.3448 12.5355 95.6656 11.8708 95.9806 11.1535C96.1703 10.7215 96.4597 10.3439 96.8488 10.021C97.6225 9.37619 98.6326 9.05381 99.8791 9.05381H101.727C102.988 9.05381 104.006 9.39052 104.779 10.0639C105.553 10.723 105.94 11.6042 105.94 12.7075V19.9503H103.232V18.6608C102.888 19.1049 102.465 19.4631 101.964 19.7354C101.462 19.9933 100.968 20.1222 100.481 20.1222H99.1484ZM100.696 17.8871C101.226 17.8871 101.699 17.7509 102.114 17.4787C102.53 17.2065 102.831 16.8411 103.017 16.3826V16.0172C102.788 15.8453 102.465 15.7092 102.05 15.6089C101.649 15.5086 101.219 15.4584 100.76 15.4584H99.4063C99.0624 15.4584 98.783 15.5444 98.5681 15.7164C98.3532 15.8883 98.2457 16.1175 98.2457 16.4041V16.9629C98.2457 17.2351 98.3604 17.4572 98.5896 17.6291C98.8332 17.8011 99.1484 17.8871 99.5352 17.8871H100.696Z" fill="white"/>
<path d="M110.152 8.21562C109.593 8.21562 109.142 8.05801 108.798 7.74279C108.468 7.41325 108.304 6.98341 108.304 6.45327C108.304 5.92313 108.468 5.50045 108.798 5.18524C109.142 4.85569 109.593 4.69092 110.152 4.69092C110.711 4.69092 111.155 4.85569 111.484 5.18524C111.828 5.50045 112 5.92313 112 6.45327C112 6.98341 111.828 7.41325 111.484 7.74279C111.155 8.05801 110.711 8.21562 110.152 8.21562ZM108.69 9.22575H111.613V19.9503H108.69V9.22575Z" fill="white"/>
</svg>
