<svg width="25" height="24" viewBox="0 0 25 24" fill="none" xmlns="http://www.w3.org/2000/svg">
<rect width="24" height="24" transform="translate(0.25)" fill="white"/>
<path fill-rule="evenodd" clip-rule="evenodd" d="M23.29 12.2614C23.29 11.4459 23.2168 10.6618 23.0809 9.90909H12.25V14.3575H18.4391C18.1725 15.795 17.3623 17.013 16.1443 17.8284V20.7139H19.8609C22.0355 18.7118 23.29 15.7636 23.29 12.2614Z" fill="#4285F4"/>
<path fill-rule="evenodd" clip-rule="evenodd" d="M12.2495 23.4998C15.3545 23.4998 17.9577 22.4701 19.8604 20.7137L16.1438 17.8283C15.114 18.5183 13.7967 18.926 12.2495 18.926C9.25425 18.926 6.71902 16.903 5.8147 14.1848H1.97266V17.1644C3.86493 20.9228 7.75402 23.4998 12.2495 23.4998Z" fill="#34A853"/>
<path fill-rule="evenodd" clip-rule="evenodd" d="M5.81523 14.1851C5.58523 13.4951 5.45455 12.758 5.45455 12.0001C5.45455 11.2421 5.58523 10.5051 5.81523 9.81506V6.83551H1.97318C1.19432 8.38801 0.75 10.1444 0.75 12.0001C0.75 13.8557 1.19432 15.6121 1.97318 17.1646L5.81523 14.1851Z" fill="#FBBC05"/>
<path fill-rule="evenodd" clip-rule="evenodd" d="M12.2495 5.07386C13.9379 5.07386 15.4538 5.65409 16.6456 6.79364L19.944 3.49523C17.9524 1.63955 15.3492 0.5 12.2495 0.5C7.75402 0.5 3.86493 3.07705 1.97266 6.83545L5.8147 9.815C6.71902 7.09682 9.25425 5.07386 12.2495 5.07386Z" fill="#EA4335"/>
</svg>
