<svg width="27" height="26" viewBox="0 0 27 26" fill="none" xmlns="http://www.w3.org/2000/svg">
<path d="M0.832031 1.86248C0.832031 0.834137 1.6868 -1.90735e-06 2.74127 -1.90735e-06H24.7589C25.8133 -1.90735e-06 26.6681 0.834137 26.6681 1.86248V24.1375C26.6681 25.1662 25.8133 26 24.7589 26H2.74127C1.6868 26 0.832031 25.1662 0.832031 24.1375V1.86248Z" fill="#006699"/>
<path fill-rule="evenodd" clip-rule="evenodd" d="M8.66424 21.7647V10.0242H4.76193V21.7647H8.66424ZM6.71307 8.42126C8.07388 8.42126 8.92088 7.51973 8.92088 6.39307C8.89552 5.24105 8.07389 4.36453 6.73888 4.36453C5.40402 4.36453 4.53125 5.24105 4.53125 6.39307C4.53125 7.51973 5.37806 8.42126 6.68763 8.42126H6.71307Z" fill="white"/>
<path fill-rule="evenodd" clip-rule="evenodd" d="M10.8232 21.7647H14.7255V15.2083C14.7255 14.8574 14.7509 14.5069 14.8539 14.2561C15.136 13.555 15.7781 12.8289 16.8561 12.8289C18.2682 12.8289 18.833 13.9055 18.833 15.4838V21.7647H22.735V15.0329C22.735 11.4267 20.8098 9.74873 18.2424 9.74873C16.1372 9.74873 15.213 10.9254 14.6996 11.7269H14.7256V10.0242H10.8233C10.8746 11.1259 10.8232 21.7647 10.8232 21.7647Z" fill="white"/>
</svg>
