<svg width="32" height="32" viewBox="0 0 32 32" fill="none" xmlns="http://www.w3.org/2000/svg">
<path d="M29.6369 0H2.36447C1.0585 0 0 1.02614 0 2.29265V29.7066C0 30.9731 1.05886 32 2.36447 32H29.6369C30.9429 32 32 30.9724 32 29.7066V2.29265C32 1.0265 30.9429 0 29.6369 0ZM9.70144 26.7861H4.86654V12.3386H9.70144V26.7861ZM7.28435 10.3649H7.25199C5.63064 10.3649 4.57961 9.25593 4.57961 7.86782C4.57961 6.45163 5.66157 5.37286 7.31493 5.37286C8.96863 5.37286 9.98589 6.45127 10.0179 7.86782C10.0179 9.25628 8.96899 10.3649 7.28435 10.3649ZM27.1303 26.7861H22.2964V19.0566C22.2964 17.1138 21.5963 15.789 19.8484 15.789C18.5108 15.789 17.7172 16.6829 17.3687 17.5458C17.2393 17.8544 17.2077 18.2854 17.2077 18.7163V26.7861H12.3752C12.3752 26.7861 12.4385 13.6933 12.3752 12.3383H17.2084V14.3866C17.8502 13.4025 18.9965 11.9984 21.5636 11.9984C24.7448 11.9984 27.1303 14.062 27.1303 18.5023V26.7861ZM17.1771 14.4325C17.1853 14.419 17.1973 14.4023 17.2084 14.3866V14.4325H17.1771Z" fill="white"/>
</svg>
