<svg width="192" height="151" viewBox="0 0 192 151" fill="none" xmlns="http://www.w3.org/2000/svg">
<g opacity="0.6" filter="url(#filter0_f_7870_15876)">
<path d="M72 137.5C53.7495 127.645 27.1721 139.523 13.1637 148.515C10.6968 150.098 8.67466 152.256 7.06484 154.705L1.79221 162.729C-0.681763 166.494 -2 170.9 -2 175.405C-2 187.557 7.42181 197.628 19.5469 198.436L65.5 201.5L141.099 209.686C143.026 209.895 144.971 209.869 146.892 209.61L192.245 203.491C201.283 202.271 208.868 196.042 211.672 187.364C215.084 176.804 218.5 165.636 218.5 163.5C218.5 160.3 216.833 133.5 216 120.5L212.623 92.6409C212.212 89.2526 211.084 85.9909 209.312 83.0734L204.633 75.3659C203.881 74.1282 202.958 73.0034 201.891 72.025L199.069 69.4387C198.06 68.5133 196.74 68 195.371 68C192.594 68 190.257 70.0732 189.939 72.8319C188.358 86.5082 186 107.517 186 110C186 113.5 164.5 137.5 154 141C143.5 144.5 97 151 72 137.5Z" fill="#875B0E"/>
</g>
<defs>
<filter id="filter0_f_7870_15876" x="-69.2" y="0.800003" width="354.9" height="276.225" filterUnits="userSpaceOnUse" color-interpolation-filters="sRGB">
<feFlood flood-opacity="0" result="BackgroundImageFix"/>
<feBlend mode="normal" in="SourceGraphic" in2="BackgroundImageFix" result="shape"/>
<feGaussianBlur stdDeviation="33.6" result="effect1_foregroundBlur_7870_15876"/>
</filter>
</defs>
</svg>
