<svg width="42" height="42" viewBox="0 0 42 42" fill="none" xmlns="http://www.w3.org/2000/svg">
<path fill-rule="evenodd" clip-rule="evenodd" d="M39.8652 15.4522L38.4352 16.8005C38.2502 24.922 31.6087 31.4489 23.4427 31.4489C23.2639 31.4489 23.0858 31.4458 22.9085 31.4396L21.4775 32.7887C22.1219 32.8654 22.7777 32.9049 23.4427 32.9049C32.5291 32.9049 39.8951 25.5389 39.8951 16.4524C39.8951 16.1166 39.8851 15.7831 39.8652 15.4522ZM16.133 31.196C15.1624 29.9321 13.9265 28.367 12.6484 26.8629C12.2825 26.4836 11.9364 26.0851 11.6118 25.6689C10.9689 24.9458 10.3304 24.2622 9.72442 23.6637C9.2104 23.1561 8.57246 22.5643 7.94898 22C9.38824 26.0192 12.347 29.3153 16.133 31.196ZM7.03707 17.7033C7.00603 17.2904 6.99023 16.8733 6.99023 16.4524C6.99023 7.36601 14.3562 0 23.4427 0C30.4932 0 36.508 4.435 38.8493 10.6675L37.6102 11.5231C35.5712 5.66223 29.9982 1.45597 23.4427 1.45597C15.1604 1.45597 8.4462 8.17012 8.4462 16.4524C8.4462 16.5499 8.44713 16.6471 8.44898 16.744L8.4425 16.746C7.84385 16.9241 7.3708 17.2685 7.03707 17.7033ZM38.039 12.9963C38.039 12.9967 38.0391 12.9971 38.0392 12.9975L39.3173 12.1149C39.3172 12.1146 39.3171 12.1142 39.317 12.1138L38.039 12.9963ZM8.55561 18.2732C7.81495 18.7132 7.67198 19.7976 8.36083 20.4126C8.63297 20.6556 8.91852 20.9127 9.20444 21.1735C9.20414 21.1727 9.20385 21.1718 9.20356 21.1709C8.9186 20.911 8.63403 20.6547 8.36279 20.4126C7.67452 19.7981 7.81668 18.7149 8.55574 18.2742C8.55569 18.2739 8.55565 18.2735 8.55561 18.2732ZM17.0763 30.0344C17.5696 30.6736 18.0018 31.2449 18.3471 31.7063C18.6168 32.0667 19.0313 32.249 19.4446 32.2393C19.032 32.2484 18.6184 32.0661 18.3491 31.7063C18.0041 31.2452 17.5723 30.6745 17.0794 30.0359C17.0784 30.0354 17.0774 30.0349 17.0763 30.0344Z" fill="#4285F4"/>
<rect y="37.26" width="12.9546" height="6.70322" rx="3.05753" transform="rotate(-45 0 37.26)" fill="#4285F4"/>
<path fill-rule="evenodd" clip-rule="evenodd" d="M13.2754 17.1917C13.3639 16.8452 13.5176 16.5163 13.7306 16.2233C14.025 15.8183 14.42 15.499 14.8747 15.2952C14.9716 15.2517 14.9804 15.1021 14.8907 15.0452C14.5646 14.8381 14.299 14.5462 14.1243 14.1985C13.9047 13.7616 13.8418 13.263 13.9462 12.7856C14.0505 12.3082 14.3157 11.8807 14.6977 11.5741C15.0797 11.2676 15.5556 11.1004 16.0462 11.1004C16.5369 11.1004 17.0127 11.2676 17.3948 11.5741C17.7768 11.8807 18.042 12.3082 18.1463 12.7856C18.2506 13.263 18.1877 13.7616 17.9681 14.1985C17.8386 14.4562 17.6592 14.6832 17.4423 14.8678C17.2804 15.0055 17.3013 15.3202 17.4911 15.4159C17.8886 15.6163 18.2661 15.8909 18.5077 16.2232C18.8608 16.7089 19.0511 17.2932 19.0515 17.8928V21.227C19.0515 21.5647 19.2183 21.8806 19.4972 22.071C19.6426 22.1702 19.8397 22.0661 19.8397 21.8901V18.4932C19.8398 17.6963 20.0924 16.9198 20.5613 16.2741C20.9204 15.7797 21.5632 15.3813 22.1859 15.1097C22.3805 15.0248 22.4005 14.7209 22.2298 14.5947C21.8715 14.3299 21.5782 13.9835 21.3764 13.5811C21.085 13.0001 21.0019 12.3373 21.1409 11.7028C21.2799 11.0683 21.6327 10.5002 22.1406 10.0928C22.6485 9.68549 23.2811 9.46338 23.9332 9.46338C24.5854 9.46338 25.218 9.68549 25.7259 10.0928C26.2338 10.5002 26.5865 11.0683 26.7255 11.7028C26.8645 12.3373 26.7815 13.0001 26.49 13.5811C26.2883 13.9834 25.995 14.3298 25.6369 14.5946C25.4661 14.7208 25.4861 15.0248 25.6808 15.1096C26.3035 15.3812 26.9463 15.7795 27.3055 16.274C27.7746 16.9197 28.0271 17.6963 28.0272 18.4932V19.9106L21.7022 24.278C21.173 24.6435 20.4567 24.5708 20.0116 24.1065L13.6418 17.4602C13.5344 17.3482 13.4101 17.2581 13.2754 17.1917ZM33.8509 15.8893C33.6034 15.6403 33.3121 15.4389 32.9917 15.2952C32.8947 15.2518 32.886 15.1022 32.9757 15.0452C33.3017 14.8382 33.5672 14.5463 33.7419 14.1988C33.9615 13.762 34.0244 13.2635 33.9201 12.7862C33.8158 12.3089 33.5507 11.8814 33.1687 11.5749C32.7868 11.2684 32.311 11.1013 31.8205 11.1013C31.33 11.1013 30.8542 11.2684 30.4722 11.5749C30.0903 11.8814 29.8252 12.3089 29.7209 12.7862C29.6166 13.2635 29.6795 13.762 29.899 14.1988C30.0285 14.4563 30.2078 14.6833 30.4247 14.8678C30.5865 15.0055 30.5643 15.316 30.3703 15.4028C29.9205 15.6043 29.4605 15.8836 29.2136 16.2232C28.8605 16.7089 28.6702 17.2932 28.6698 17.8928V19.4668L33.8509 15.8893Z" fill="#2B2B2B"/>
<path d="M8.35909 20.4126C7.58496 19.7215 7.86137 18.4374 8.85601 18.1414L12.3186 17.1111C12.7892 16.971 13.2986 17.1058 13.6384 17.4603L20.0082 24.1066C20.4532 24.5709 21.1695 24.6436 21.6988 24.2782L40.0446 11.6102C40.1467 11.5397 40.2678 11.5019 40.3918 11.5019C40.945 11.5019 41.2135 12.1782 40.8111 12.5577L20.317 31.8802C19.7412 32.4231 18.8196 32.3399 18.3454 31.7063C16.7905 29.6286 13.4743 25.3225 10.7458 22.6278C10.0496 21.9402 9.14796 21.1168 8.35909 20.4126Z" fill="#63E47F"/>
</svg>
